<?xml version="1.0" encoding="utf-8"?>
<!-- Generator: Adobe Illustrator 26.0.0, SVG Export Plug-In . SVG Version: 6.00 Build 0)  -->
<svg version="1.1" id="Layer_1" xmlns="http://www.w3.org/2000/svg" xmlns:xlink="http://www.w3.org/1999/xlink" x="0px" y="0px"
	 viewBox="0 0 332.9 107.5" style="enable-background:new 0 0 332.9 107.5;" xml:space="preserve">
<style type="text/css">
	.st0{fill:#FFFFFF;}
</style>
<g>
	<path class="st0" d="M132.6,54.2c-0.2-1.7-1.3-3.1-3.7-3.1c-2.9,0-4.4,2.5-4.4,6.3c0,3.7,1.1,6.3,4.4,6.3c3,0,3.9-2.3,3.9-3.4h2.5
		c-0.4,3.7-3,5.6-6.5,5.6c-4.6,0-7.1-3.2-7.1-8.3c0-4.9,2.7-8.5,7.2-8.5c3.2,0,6.1,1.4,6.4,5.2L132.6,54.2L132.6,54.2L132.6,54.2z"
		/>
	<path class="st0" d="M138.2,57.3c0-5,2.8-8.4,7.2-8.4c4.8,0,7.1,3.4,7.1,8.4c0,5-2.7,8.5-7.2,8.5C140.7,65.8,138.2,62.4,138.2,57.3
		z M141.1,57.3c0,3.9,1.3,6.3,4.4,6.3c3,0,4.3-2.4,4.3-6.3c0-3.9-1.3-6.3-4.4-6.3C142.5,51.1,141.1,53.5,141.1,57.3z"/>
	<path class="st0" d="M156.9,49.4h2.6v2.7h0.1c0.8-1.7,2.6-3.1,5.1-3.1c2.4,0,4.3,1.1,4.9,3.4h0.1c0.6-1.7,2.6-3.4,5.2-3.4
		c3,0,5.1,1.4,5.1,5.3v11.2h-2.8v-9.9c0-1.2,0-2.4-0.6-3.2c-0.6-0.8-1.4-1-2.5-1c-3,0-4.4,1.9-4.4,4.5v9.6H167v-9.9
		c0-1.2,0-2.4-0.6-3.2c-0.6-0.8-1.4-1.1-2.5-1.1c-3,0-4.4,1.9-4.4,4.4v9.7h-2.8v-16H156.9z"/>
	<path class="st0" d="M185.5,49.4h2.7v2.7h0.1c0.9-1.7,2.7-3.1,5.1-3.1c3.4,0,6.5,2.1,6.5,8.2c0,5.9-3,8.6-6.6,8.6
		c-2.4,0-4.2-1.3-4.9-2.8h-0.1v8.1h-2.8V49.4z M192.8,63.6c2.9,0,4.3-2.3,4.3-6.5c0-3.4-1-6-4.3-6c-2.9,0-4.5,2.4-4.5,5.1V58
		C188.2,61.1,189.8,63.6,192.8,63.6z"/>
	<path class="st0" d="M206.8,59.2c0,1.2,0,2.5,0.6,3.3c0.6,0.8,1.4,1.1,2.4,1.1c3,0,4.4-2,4.4-5.5v-8.6h2.8v16h-2.6v-2.8h-0.1
		c-0.8,1.7-2.5,3.1-5,3.1c-3.1,0-5.1-1.5-5.1-5.3V49.4h2.7L206.8,59.2L206.8,59.2z"/>
	<path class="st0" d="M226,44.7v4.7h3.9v2.1H226V61c0,1.7,0.7,2.4,2.4,2.4c0.8,0,1.8-0.2,1.8-0.2v2.4c0,0-1.1,0.2-2.5,0.2
		c-3.1,0-4.4-1.5-4.4-4.3v-9.9h-2.9v-2h0.5c2.2,0,2.7-0.5,2.7-3.6v-1.2C223.6,44.7,226,44.7,226,44.7z"/>
	<path class="st0" d="M234.3,53.7c0.1-2.9,2.2-4.8,6-4.8c4,0,6,1.7,6,6v6.5c0,1.3,0.3,1.8,1.4,1.8v2.2h-0.3c-2.5,0-3.4-0.9-3.7-2.9
		h-0.1c-0.8,1.8-2.8,3-5.1,3c-3.2,0-5.1-1.8-5.1-4.6c0-1.8,0.8-3.2,2.4-4c1.7-0.9,4.2-1.2,7.8-1.3V55c0-2.9-1.1-4-3.4-4
		c-2.4,0-3.3,1.3-3.4,2.8C236.9,53.7,234.3,53.7,234.3,53.7z M243.6,58.1v-0.3c-3.4,0.2-5.5,0.4-6.5,1.2c-0.6,0.4-0.9,1.1-0.9,2
		c0,1.7,1.1,2.5,2.8,2.5C241.1,63.5,243.6,62,243.6,58.1z"/>
	<path class="st0" d="M255.1,44.7v4.7h3.9v2.1h-3.9V61c0,1.7,0.7,2.4,2.4,2.4c0.8,0,1.8-0.2,1.8-0.2v2.4c0,0-1.1,0.2-2.5,0.2
		c-3.1,0-4.4-1.5-4.4-4.3v-9.9h-2.9v-2h0.5c2.2,0,2.7-0.5,2.7-3.6v-1.2C252.7,44.7,255.1,44.7,255.1,44.7z"/>
	<path class="st0" d="M263,42.7h2.9v2.9H263V42.7z M263.1,49.4h2.8v16h-2.8V49.4z"/>
	<path class="st0" d="M270.2,57.3c0-5,2.8-8.4,7.2-8.4c4.8,0,7.1,3.4,7.1,8.4c0,5-2.7,8.5-7.2,8.5C272.6,65.8,270.2,62.4,270.2,57.3
		z M273,57.3c0,3.9,1.3,6.3,4.4,6.3c3,0,4.3-2.4,4.3-6.3c0-3.9-1.3-6.3-4.4-6.3C274.5,51.1,273,53.5,273,57.3z"/>
	<path class="st0" d="M299.1,55.5c0-1.2,0-2.4-0.6-3.2c-0.6-0.8-1.4-1.1-2.5-1.1c-3,0-4.4,1.9-4.4,4.5v9.7h-2.8v-16h2.6v2.7h0.1
		c0.8-1.7,2.6-3.1,5.2-3.1c3.1,0,5.1,1.4,5.1,5.3v11.2h-2.8L299.1,55.5L299.1,55.5z"/>
	<path class="st0" d="M306.8,53.7c0.1-2.9,2.2-4.8,6-4.8c4,0,6,1.7,6,6v6.5c0,1.3,0.3,1.8,1.4,1.8v2.2h-0.3c-2.5,0-3.4-0.9-3.7-2.9
		h-0.1c-0.8,1.8-2.8,3-5.1,3c-3.2,0-5.1-1.8-5.1-4.6c0-1.8,0.8-3.2,2.4-4c1.7-0.9,4.2-1.2,7.8-1.3V55c0-2.9-1.1-4-3.4-4
		c-2.4,0-3.3,1.3-3.4,2.8C309.4,53.7,306.8,53.7,306.8,53.7z M316.2,58.1v-0.3c-3.4,0.2-5.5,0.4-6.5,1.2c-0.6,0.4-0.9,1.1-0.9,2
		c0,1.7,1.1,2.5,2.8,2.5C313.6,63.5,316.2,62,316.2,58.1z"/>
	<path class="st0" d="M324.2,41.4h2.8v24h-2.8V41.4z"/>
	<path class="st0" d="M132.6,83.7c-0.2-1.7-1.3-3.1-3.7-3.1c-2.9,0-4.4,2.5-4.4,6.3c0,3.7,1.1,6.3,4.4,6.3c3,0,3.9-2.3,3.9-3.4h2.5
		c-0.4,3.7-3,5.6-6.5,5.6c-4.6,0-7.1-3.2-7.1-8.3c0-4.9,2.7-8.5,7.2-8.5c3.2,0,6.1,1.4,6.4,5.2L132.6,83.7L132.6,83.7z"/>
	<path class="st0" d="M139.5,78.8h2.6v3h0.1c0.8-1.7,2.8-3.4,5.1-3.4h0.3v2.9H147c-2.9,0-4.8,1.7-4.8,4.8v8.7h-2.8V78.8z"/>
	<path class="st0" d="M156.9,95.3c-4.9,0-7.2-3.5-7.2-8.3c0-4.8,2.5-8.5,7.1-8.5c4.8,0,6.7,3.7,6.7,7.8v1.4h-11.1
		c0.2,3.4,1.5,5.5,4.5,5.5c2.7,0,3.4-1.6,3.7-2.5h2.7C162.7,93.4,160.4,95.3,156.9,95.3z M160.7,85.3c-0.1-2.7-1.1-4.8-3.9-4.8
		c-2.5,0-3.9,2-4.3,5h8.2V85.3z"/>
	<path class="st0" d="M167.3,83.2c0.1-2.9,2.2-4.8,6-4.8c4,0,6,1.7,6,6v6.5c0,1.3,0.3,1.8,1.4,1.8V95h-0.3c-2.5,0-3.4-0.9-3.7-2.9
		h-0.1c-0.8,1.8-2.8,3-5.1,3c-3.2,0-5.1-1.8-5.1-4.6c0-1.8,0.8-3.2,2.4-4c1.7-0.9,4.2-1.2,7.8-1.3v-0.7c0-2.9-1.1-4-3.4-4
		c-2.4,0-3.3,1.3-3.4,2.8C169.9,83.2,167.3,83.2,167.3,83.2z M176.6,87.7v-0.4c-3.4,0.2-5.5,0.4-6.5,1.2c-0.6,0.4-0.9,1.1-0.9,2
		c0,1.7,1.1,2.5,2.8,2.5C174.1,92.9,176.6,91.6,176.6,87.7z"/>
	<path class="st0" d="M188.1,74.2v4.6h3.9v2.1h-3.9v9.5c0,1.7,0.7,2.4,2.4,2.4c0.8,0,1.8-0.2,1.8-0.2V95c0,0-1.1,0.2-2.5,0.2
		c-3.1,0-4.4-1.5-4.4-4.3v-9.9h-2.9v-2h0.5c2.2,0,2.7-0.5,2.7-3.6v-1.2L188.1,74.2L188.1,74.2z"/>
	<path class="st0" d="M196,72.2h2.9v2.9H196V72.2z M196.1,78.8h2.8v16h-2.8V78.8z"/>
	<path class="st0" d="M202.3,78.8h2.8l3.4,10.3c0.4,1.3,0.8,2.5,0.8,2.5h0.1c0,0,0.3-1.3,0.8-2.5l3.5-10.3h2.6l-5.5,16h-2.9
		L202.3,78.8z"/>
	<path class="st0" d="M219.9,72.2h2.9v2.9h-2.9V72.2z M220,78.8h2.8v16H220V78.8z"/>
	<path class="st0" d="M231.8,74.2v4.6h3.9v2.1h-3.9v9.5c0,1.7,0.7,2.4,2.4,2.4c0.8,0,1.8-0.2,1.8-0.2V95c0,0-1.1,0.2-2.5,0.2
		c-3.1,0-4.4-1.5-4.4-4.3v-9.9h-2.9v-2h0.5c2.2,0,2.7-0.5,2.7-3.6v-1.2L231.8,74.2L231.8,74.2z"/>
	<path class="st0" d="M238.3,78.8h2.8l3.4,10.1c0.5,1.5,0.8,2.5,0.8,2.5h0.1c0,0,0.3-1,0.8-2.5l3.3-10h2.8l-5.9,17
		c-1.3,3.7-2.4,5-5.8,5c-0.6,0-1.3-0.1-1.7-0.2v-2.3c0.5,0.1,1.1,0.2,1.4,0.2c2,0,2.7-0.8,3.4-2.9l0.3-0.8L238.3,78.8z"/>
	<path class="st0" d="M264,70.9h2.8v24H264V70.9z"/>
	<path class="st0" d="M271.8,83.2c0.1-2.9,2.2-4.8,6-4.8c4,0,6,1.7,6,6v6.5c0,1.3,0.3,1.8,1.4,1.8V95h-0.3c-2.5,0-3.4-0.9-3.7-2.9
		h-0.1c-0.8,1.8-2.8,3-5.1,3c-3.2,0-5.1-1.8-5.1-4.6c0-1.8,0.8-3.2,2.4-4c1.7-0.9,4.2-1.2,7.8-1.3v-0.7c0-2.9-1.1-4-3.4-4
		c-2.4,0-3.3,1.3-3.4,2.8C274.4,83.2,271.8,83.2,271.8,83.2z M281.1,87.7v-0.4c-3.4,0.2-5.5,0.4-6.5,1.2c-0.6,0.4-0.9,1.1-0.9,2
		c0,1.7,1.1,2.5,2.8,2.5C278.6,92.9,281.1,91.6,281.1,87.7z"/>
	<path class="st0" d="M289.2,70.9h2.8v10.6l0,0c0.9-1.8,2.7-3,5-3c3.4,0,6.5,2.1,6.5,8.2c0,5.9-3,8.6-6.6,8.6c-2.5,0-4.2-1.4-5-2.9
		h-0.1V95h-2.6L289.2,70.9L289.2,70.9z M300.7,86.6c0-3.4-1-6-4.3-6c-2.9,0-4.5,2.4-4.5,5.1v1.7c0,3.2,1.6,5.6,4.6,5.6
		C299.3,93.1,300.7,90.8,300.7,86.6z"/>
</g>
</svg>
